<?xml version="1.0" encoding="UTF-8" standalone="no"?>
<!-- Created with Inkscape (http://www.inkscape.org/) -->

<svg
   width="120"
   height="120"
   viewBox="0 0 120 120"
   version="1.1"
   id="svg5"
   inkscape:version="1.2.2 (b0a8486541, 2022-12-01)"
   sodipodi:docname="logo.svg"
   xmlns:inkscape="http://www.inkscape.org/namespaces/inkscape"
   xmlns:sodipodi="http://sodipodi.sourceforge.net/DTD/sodipodi-0.dtd"
   xmlns="http://www.w3.org/2000/svg"
   xmlns:svg="http://www.w3.org/2000/svg">
  <sodipodi:namedview
     id="namedview7"
     pagecolor="#ffffff"
     bordercolor="#000000"
     borderopacity="0.25"
     inkscape:showpageshadow="2"
     inkscape:pageopacity="0.0"
     inkscape:pagecheckerboard="0"
     inkscape:deskcolor="#d1d1d1"
     inkscape:document-units="px"
     showgrid="true"
     inkscape:zoom="2.8284271"
     inkscape:cx="70.887455"
     inkscape:cy="63.816387"
     inkscape:window-width="1003"
     inkscape:window-height="749"
     inkscape:window-x="805"
     inkscape:window-y="241"
     inkscape:window-maximized="0"
     inkscape:current-layer="layer1">
    <inkscape:grid
       type="xygrid"
       id="grid680" />
  </sodipodi:namedview>
  <defs
     id="defs2">
    <inkscape:path-effect
       effect="bspline"
       id="path-effect1104"
       is_visible="true"
       lpeversion="1"
       weight="33.333333"
       steps="2"
       helper_size="0"
       apply_no_weight="true"
       apply_with_weight="true"
       only_selected="false" />
    <inkscape:path-effect
       effect="bspline"
       id="path-effect982"
       is_visible="true"
       lpeversion="1"
       weight="33.333333"
       steps="2"
       helper_size="0"
       apply_no_weight="true"
       apply_with_weight="true"
       only_selected="false" />
    <inkscape:path-effect
       effect="bspline"
       id="path-effect3257"
       is_visible="true"
       lpeversion="1"
       weight="33.333333"
       steps="2"
       helper_size="0"
       apply_no_weight="true"
       apply_with_weight="true"
       only_selected="false" />
    <inkscape:path-effect
       effect="bspline"
       id="path-effect3252"
       is_visible="true"
       lpeversion="1"
       weight="33.333333"
       steps="2"
       helper_size="0"
       apply_no_weight="true"
       apply_with_weight="true"
       only_selected="false" />
    <inkscape:path-effect
       effect="bspline"
       id="path-effect2380"
       is_visible="true"
       lpeversion="1"
       weight="33.333333"
       steps="2"
       helper_size="0"
       apply_no_weight="true"
       apply_with_weight="true"
       only_selected="false" />
    <inkscape:path-effect
       effect="bspline"
       id="path-effect2372"
       is_visible="true"
       lpeversion="1"
       weight="33.333333"
       steps="2"
       helper_size="0"
       apply_no_weight="true"
       apply_with_weight="true"
       only_selected="false" />
    <inkscape:path-effect
       effect="bspline"
       id="path-effect1087"
       is_visible="true"
       lpeversion="1"
       weight="33.333333"
       steps="2"
       helper_size="0"
       apply_no_weight="true"
       apply_with_weight="true"
       only_selected="false" />
    <inkscape:path-effect
       effect="bspline"
       id="path-effect940"
       is_visible="true"
       lpeversion="1"
       weight="33.333333"
       steps="2"
       helper_size="0"
       apply_no_weight="true"
       apply_with_weight="true"
       only_selected="false" />
    <inkscape:path-effect
       effect="bspline"
       id="path-effect885"
       is_visible="true"
       lpeversion="1"
       weight="33.333333"
       steps="2"
       helper_size="0"
       apply_no_weight="true"
       apply_with_weight="true"
       only_selected="false" />
    <inkscape:path-effect
       effect="bspline"
       id="path-effect879"
       is_visible="true"
       lpeversion="1"
       weight="33.333333"
       steps="2"
       helper_size="0"
       apply_no_weight="true"
       apply_with_weight="true"
       only_selected="false" />
    <inkscape:path-effect
       effect="bspline"
       id="path-effect875"
       is_visible="true"
       lpeversion="1"
       weight="33.333333"
       steps="2"
       helper_size="0"
       apply_no_weight="true"
       apply_with_weight="true"
       only_selected="false" />
    <inkscape:path-effect
       effect="bspline"
       id="path-effect871"
       is_visible="true"
       lpeversion="1"
       weight="33.333333"
       steps="2"
       helper_size="0"
       apply_no_weight="true"
       apply_with_weight="true"
       only_selected="false" />
    <inkscape:path-effect
       effect="bspline"
       id="path-effect867"
       is_visible="true"
       lpeversion="1"
       weight="33.333333"
       steps="2"
       helper_size="0"
       apply_no_weight="true"
       apply_with_weight="true"
       only_selected="false" />
  </defs>
  <g
     inkscape:label="Capa 1"
     inkscape:groupmode="layer"
     id="layer1">
    <path
       style="fill:#000000;fill-opacity:1;stroke-width:2.76388"
       d="m 30.638215,39.104324 c 2.662798,-1.363726 7.987447,-4.090693 12.638814,-3.540677 4.651367,0.550016 8.62743,4.37367 11.947907,6.390568 3.320478,2.016898 5.985128,2.229428 11.010861,2.056698 5.025733,-0.17273 12.412633,-0.730287 18.041039,-1.540895 5.628405,-0.810607 9.498719,-1.873919 12.34981,-1.646395 2.851091,0.227525 4.681594,1.742895 5.737944,2.719161 1.05635,0.976267 1.3394,1.412632 1.34543,2.000285 0.006,0.587654 -0.26225,1.328114 -0.44393,1.843957 -0.18168,0.515843 -0.27679,0.806958 -0.39445,0.988701 -0.11765,0.181743 -0.25929,0.256382 -2.914204,1.616897 -2.65491,1.360516 -7.821855,4.006264 -10.559371,5.723043 -2.737517,1.716778 -3.041834,2.50125 -0.91859,4.942441 2.123245,2.441191 6.670269,6.537449 9.108275,8.88719 2.43801,2.349741 2.76761,2.951834 3.20123,3.921699 0.43362,0.969865 0.97158,2.307145 1.16738,3.829701 0.1958,1.522556 0.0509,3.230323 -0.14401,4.109875 -0.19495,0.879551 -0.44214,0.933034 -0.83847,1.270536 -0.39633,0.337502 -0.9395,0.958273 -3.142485,1.509037 -2.202981,0.550764 -6.067861,1.032043 -9.699645,1.12297 -3.631784,0.09093 -7.02996,-0.209092 -12.434929,-0.389182 -5.40497,-0.180089 -12.815639,-0.23997 -18.842056,-0.506979 -6.026418,-0.267009 -10.668116,-0.741401 -14.119454,-2.663706 -3.451338,-1.922304 -5.710988,-5.295107 -8.383687,-9.046079 -2.672698,-3.750971 -5.758247,-7.879484 -7.664395,-11.286386 -1.906148,-3.406901 -2.63143,-6.092286 -2.831137,-7.916856 -0.199707,-1.824571 0.128185,-2.788003 0.455537,-3.749848 0.105504,-1.136711 0.210765,-2.270806 0.252584,-3.535904 0.04182,-1.265098 0.01967,-2.658401 0.578041,-3.638737 0.558367,-0.980336 1.696257,-1.544101 2.264714,-1.825742 0.568457,-0.281641 0.568449,-0.281647 3.231247,-1.645373 z"
       id="path3255"
       inkscape:path-effect="#path-effect3257"
       inkscape:original-d="m 27.975417,40.46805 c 5.327311,-2.724104 10.651959,-5.451072 15.973943,-8.1809 3.978886,3.826669 7.95495,7.650322 11.92843,11.471195 2.667415,0.215389 5.332065,0.427921 7.994102,0.637603 7.389868,-0.554717 14.776768,-1.112277 22.161154,-1.672708 3.873112,-1.060491 7.743427,-2.123798 11.611138,-3.18999 1.833232,1.518286 3.663736,3.033652 5.491596,4.546189 0.28573,0.439239 0.56878,0.875604 0.84916,1.309111 -0.26564,0.743352 -0.53391,1.483814 -0.80484,2.221428 -0.0924,0.293966 -0.18757,0.585062 -0.28532,0.873303 -0.13904,0.07751 -0.28067,0.152177 -0.42501,0.223957 -5.165549,2.649211 -10.332493,5.294962 -15.504223,7.938981 -0.301664,0.78752 -0.605976,1.571994 -0.91313,2.35387 4.55017,4.099358 9.097192,8.195618 13.641909,12.289524 0.332394,0.604898 0.661994,1.206995 0.988844,1.806327 0.54085,1.340349 1.07881,2.67763 1.61413,4.012447 -0.14217,1.711119 -0.28703,3.418887 -0.43474,5.124696 -0.24446,0.05626 -0.49166,0.109728 -0.74156,0.160442 -0.54052,0.62365 -1.0837,1.244415 -1.62954,1.862334 C 95.628795,84.73997 91.763915,85.22125 87.895649,85.699842 84.499745,85.402545 81.101569,85.102526 77.700256,84.799708 70.291829,84.742588 62.88116,84.682714 55.467281,84.620056 50.828096,84.148402 46.186398,83.674011 41.541666,83.196826 39.284604,79.826522 37.024952,76.45372 34.762331,73.077844 31.679372,68.951865 28.593825,64.823351 25.505493,60.692047 c -0.72253,-2.682672 -1.447814,-5.368057 -2.17592,-8.056431 0.330134,-0.959128 0.982056,-2.885536 0.982056,-2.885536 0,0 0.213758,-2.270528 0.316511,-3.410133 -0.01935,-1.390913 -0.04152,-2.784215 -0.06645,-4.180562 1.140595,-0.560924 2.278484,-1.12469 3.413735,-1.691329 z"
       sodipodi:nodetypes="sccccccccccccccccccccccccccccss"
       inkscape:label="cuerpo" />
    <ellipse
       style="fill:#7a0000;fill-opacity:1;stroke-width:1.80257"
       id="path479-6"
       cx="102.92647"
       cy="84.452545"
       rx="16.719206"
       ry="16.440233"
       inkscape:label="rueda-a" />
    <ellipse
       style="fill:#7a0000;fill-opacity:1;stroke-width:1.80387"
       id="path479-6-3"
       cx="17.193851"
       cy="87.010292"
       rx="16.658003"
       ry="16.524574"
       inkscape:label="rueda-d" />
    <ellipse
       style="fill:#4d4d4d;fill-opacity:1;stroke-width:0.902558"
       id="path479-6-3-7"
       cx="17.187366"
       cy="87.074196"
       rx="8.3347139"
       ry="8.2679529"
       inkscape:label="int-rueda-d" />
    <ellipse
       style="fill:#4d4d4d;fill-opacity:1;stroke-width:0.902558"
       id="path479-6-3-7-3"
       cx="102.82298"
       cy="84.169998"
       rx="8.3347139"
       ry="8.2679529"
       inkscape:label="int-rueda-d" />
    <path
       style="fill:#4d4d4d;stroke-width:3.04092"
       d="m 23.092414,16.48981 c 2.827677,-1.305301 5.49075,2.064592 6.640723,4.354415 1.149972,2.289823 0.790315,3.500418 0.324546,4.897136 -0.465768,1.396718 -1.03754,2.979707 -3.681867,3.679415 -2.644326,0.699708 -7.364541,0.518295 -8.232122,-2.562688 -0.867582,-3.080983 2.121044,-9.062978 4.94872,-10.368278 z"
       id="path1085"
       inkscape:path-effect="#path-effect1087"
       inkscape:original-d="m 23.254319,11.811202 c 2.665642,3.37341 5.328717,6.743301 7.989214,10.10967 -0.357099,1.214164 -0.716754,2.42476 -1.078994,3.63186 -0.56922,1.586577 -1.140994,3.169565 -1.715353,4.749068 -4.717828,-0.177882 -9.438042,-0.359313 -14.160925,-0.544249 2.991316,-5.978715 5.979944,-11.960709 8.966058,-17.946349 z"
       inkscape:label="foco" />
    <path
       id="path484"
       style="fill:#000000;stroke-width:3.24926"
       inkscape:label="palo-manillar"
       d="m 29.214963,18.988416 c -0.0022,0.0032 -0.0032,0.0075 -0.006,0.0107 -0.01098,0.01714 -0.02154,0.03552 -0.02911,0.054 -0.0091,0.02156 -0.02211,0.04039 -0.03485,0.05946 -0.01658,0.06802 -0.03698,0.132527 -0.05802,0.199938 -0.05324,0.169231 -0.11459,0.338878 -0.168348,0.507945 -0.04109,0.13217 -0.08035,0.265002 -0.110299,0.399873 -0.01962,0.08833 -0.02487,0.1278 -0.04063,0.216162 -0.03145,0.173958 -0.0618,0.349326 -0.08708,0.524151 -0.0085,0.05337 -0.01467,0.10874 -0.02293,0.16213 -0.0015,0.0094 -0.0072,0.05271 -0.01188,0.06485 -0.003,0.0096 -0.0072,0.01825 -0.01188,0.02709 -0.04109,0.08312 -0.08337,-0.06038 -0.104499,-0.08645 -0.610856,2.750309 -1.217832,5.500236 -1.82853,8.251394 -1.916129,8.505952 -3.862945,17.00369 -5.775836,25.51069 -2.31086,10.276821 -4.695064,20.578495 -6.170568,31.087265 l 4.986379,3.047672 c 0.131174,-1.028681 0.23352,-2.062986 0.394728,-3.085498 1.482699,-9.403057 3.571376,-18.658553 5.636516,-27.893699 1.902825,-8.509201 3.849784,-17.001735 5.770035,-25.505287 l 2.350942,-10.510118 z m -0.284439,0.378255 -0.006,0.0056 c -0.0022,0.01071 -0.0032,0.02154 -0.006,0.03243 0.0032,-0.01244 0.0077,-0.02571 0.01189,-0.03783 z" />
    <path
       id="path960"
       style="fill:#000000;stroke-width:2.99548"
       inkscape:label="manillar"
       d="m 35.212404,16.796753 c -0.435751,-1.51e-4 -0.871593,0.0058 -1.307459,0.02351 -1.254543,0.07754 -2.552492,0.203392 -3.642611,0.895242 -0.174233,0.140266 -0.357935,0.269006 -0.519564,0.424062 -0.300248,0.287988 -0.558095,0.614995 -0.793608,0.960031 -0.002,0.0048 -2.9e-4,0.0069 -0.0058,0.01188 -0.01188,0.01713 -0.02238,0.03559 -0.03427,0.05302 -0.0075,0.01188 -0.01576,0.02351 -0.02268,0.03531 -0.0056,0.0091 -0.01244,0.01962 -0.01742,0.02959 -0.0051,0.0099 -0.0075,0.01935 -0.01162,0.02958 -0.0088,0.0235 -0.02154,0.04406 -0.03427,0.06478 -0.01631,0.07413 -0.03639,0.14444 -0.05711,0.217931 -0.05236,0.184461 -0.11268,0.369358 -0.165556,0.553637 -0.04039,0.144079 -0.07901,0.28886 -0.108488,0.43584 -0.01935,0.09629 -0.02459,0.139298 -0.03998,0.235591 -0.02928,0.179651 -0.05588,0.361272 -0.07993,0.541863 l 4.2992,2.48547 c 0.593223,-0.901131 1.046728,-1.982041 1.866982,-2.709283 0.14234,-0.12617 0.312763,-0.214752 0.468175,-0.32394 1.066373,-0.526274 2.287303,-0.582697 3.454204,-0.61842 0.867024,-0.01437 1.730879,0.0035 2.597791,0.01769 0.935679,0.0094 1.873374,0.0048 2.809036,0.0058 0.696664,0.001 1.393016,0.0051 2.089654,0.0058 -0.07693,-0.361063 -0.157142,-0.723066 -0.234088,-1.083727 -0.06753,-0.320802 -0.169315,-0.793789 -0.2341,-1.119049 -0.07081,-0.355627 -0.138773,-0.711472 -0.182719,-1.071936 -0.003,-0.02543 -0.0046,-0.05101 -0.0058,-0.07658 -0.593807,1.31e-4 -1.187518,1.72e-4 -1.781343,0 -0.666541,2.86e-4 -1.331758,7.03e-4 -1.998298,0 -0.730914,4.36e-4 -1.461509,0.0064 -2.192421,0.0058 -0.935906,-9.8e-4 -1.87323,-1.26e-4 -2.809042,-0.0177 -0.436016,-0.0053 -0.871701,-0.01188 -1.307456,-0.01188 z m -6.839894,3.663429 c -0.0012,0.01384 -0.0046,0.02763 -0.0058,0.04123 0.0026,-0.01384 0.0083,-0.02764 0.01162,-0.04123 z" />
    <path
       style="fill:#000000;fill-opacity:1;stroke-width:3.73603"
       d="m 28.18194,21.387606 c 0.01235,-0.05807 0.03752,-0.176404 0.05862,-0.27828 0.02111,-0.101875 0.03813,-0.187303 0.05622,-0.263664 0.01808,-0.07636 0.03729,-0.143125 0.0565,-0.215395 0.01921,-0.07227 0.03842,-0.150293 0.06326,-0.241094 0.02484,-0.0908 0.05532,-0.194119 0.09642,-0.339694 0.0411,-0.145574 0.09279,-0.33348 0.155281,-0.516208 0.06249,-0.182727 0.135794,-0.359658 0.228788,-0.515592 0.09299,-0.155935 0.204987,-0.289462 0.327388,-0.419916 0.1224,-0.130453 0.254788,-0.257484 0.405345,-0.395085 0.150558,-0.137602 0.3191,-0.285666 0.554189,-0.354241 0.23509,-0.06857 0.533167,-0.05857 0.568029,0.42627 0.03486,0.484844 -0.188511,1.442577 -0.660379,2.048681 -0.471867,0.606105 -1.19552,0.863641 -1.558787,0.992921 -0.363267,0.129281 -0.363215,0.129364 -0.350866,0.0713 z"
       id="path2370"
       inkscape:path-effect="#path-effect2372"
       inkscape:original-d="m 28.169591,21.445673 c 0.02949,-0.115115 0.05473,-0.233437 0.07549,-0.354956 0.02154,-0.08228 0.03826,-0.167768 0.0511,-0.25646 0.0235,-0.06357 0.04267,-0.130344 0.05761,-0.200297 0.02351,-0.07478 0.04267,-0.152814 0.05761,-0.234015 0.03469,-0.100179 0.06534,-0.20345 0.09148,-0.310041 0.05605,-0.184656 0.107732,-0.372564 0.155053,-0.563647 0.07763,-0.17371 0.15099,-0.350615 0.219866,-0.530721 0.116358,-0.130317 0.228324,-0.263867 0.335966,-0.400566 0.136754,-0.123793 0.269117,-0.250849 0.397146,-0.381076 0.17288,-0.144856 0.341424,-0.292919 0.505613,-0.444181 0.302403,0.01327 0.600472,0.02351 0.894175,0.03 -0.219008,0.960971 -0.442396,1.918701 -0.670133,2.873244 -0.719334,0.260771 -1.442992,0.518292 -2.171028,0.772633 z"
       inkscape:label="arreglar-exterior-manillar" />
    <path
       style="fill:#000000;fill-opacity:1;stroke-width:4.26316"
       d="m 33.86269,22.217826 c 0.02341,-0.07366 0.07081,-0.222828 0.108113,-0.313297 0.0373,-0.09047 0.06311,-0.119492 0.08823,-0.154572 0.02512,-0.03508 0.04998,-0.0768 0.08471,-0.125187 0.03474,-0.04839 0.0789,-0.102728 0.111184,-0.147055 0.03228,-0.04433 0.05324,-0.07941 0.09388,-0.129541 0.04065,-0.05013 0.100281,-0.114424 0.170676,-0.190254 0.07039,-0.07583 0.151548,-0.163194 0.22472,-0.284373 0.07317,-0.121179 0.139389,-0.277942 -0.0879,-0.416362 -0.227289,-0.13842 -0.754184,-0.258425 -1.179048,-0.163274 -0.424864,0.09515 -0.742844,0.407421 -0.662662,0.778846 0.08018,0.371425 0.554701,0.797157 0.789673,1.007969 0.234971,0.210813 0.235008,0.210762 0.258416,0.1371 z"
       id="path2378"
       inkscape:path-effect="#path-effect2380"
       inkscape:original-d="m 33.839282,22.291488 c 0.05241,-0.145546 0.09983,-0.294706 0.1422,-0.447486 0.03108,-0.02598 0.05705,-0.05486 0.07802,-0.08774 0.03005,-0.03817 0.05484,-0.07993 0.07467,-0.125342 0.0491,-0.05065 0.09328,-0.104975 0.132334,-0.162846 0.02598,-0.03154 0.04711,-0.06652 0.0628,-0.105169 0.06465,-0.06069 0.12429,-0.124983 0.178906,-0.192891 0.08621,-0.08371 0.167325,-0.171111 0.243468,-0.262099 0.07126,-0.1532 0.137453,-0.309973 0.198701,-0.470406 -0.521897,-0.116384 -1.048797,-0.236365 -1.580709,-0.360021 -0.313004,0.315922 -0.63098,0.628195 -0.953988,0.936855 0.479526,0.429363 0.954054,0.855085 1.423561,1.277196 z"
       inkscape:label="arreglar-interior-manillar" />
    <path
       style="fill:none;fill-rule:evenodd;stroke:#000000;stroke-width:3.05562px;stroke-linecap:butt;stroke-linejoin:miter;stroke-opacity:1"
       d="m 46.399376,20.17754 0.0083,-3.361525"
       id="path2507"
       inkscape:connector-type="polyline"
       inkscape:connector-curvature="0"
       inkscape:label="arreglar-negro-manillar" />
    <rect
       style="fill:#007bff;fill-opacity:1;stroke-width:2.9155"
       id="rect2785"
       width="5.4521379"
       height="1.7535151"
       x="39.081501"
       y="-26.977249"
       transform="matrix(0.61797912,0.78619451,-0.8158098,0.5783203,0,0)"
       inkscape:label="arreglar-blanco-manillar" />
    <rect
       style="fill:#007bff;fill-opacity:1;stroke-width:2.76388"
       id="rect2964"
       width="1.15724"
       height="1.4412867"
       x="47.227203"
       y="16.100439"
       inkscape:label="arreglar-blanco-manillar-2" />
    <rect
       style="fill:#4d4d4d;fill-opacity:1;stroke-width:3.84257"
       id="rect3021"
       width="9.8222589"
       height="3.249989"
       x="22.546659"
       y="82.223503"
       transform="matrix(0.98825821,0.15279306,-0.11787807,0.99302808,0,0)"
       inkscape:label="arreglar-palo-manillar-abajo" />
    <path
       style="fill:#000000;stroke-width:2.76388"
       d="m 28.247838,21.013959 c -0.0149,0.07875 -0.0443,0.234109 -0.07341,0.392606 -0.02911,0.158496 -0.05795,0.320139 -0.08665,0.484549 -0.0287,0.164409 -0.05726,0.331589 -0.08981,0.513437 -0.03255,0.181848 -0.06905,0.378395 -0.103836,0.565781 -0.03479,0.187385 -0.06786,0.365578 -0.106096,0.567446 -0.03824,0.201868 -0.08164,0.427433 -0.130442,0.698543 -0.0488,0.271109 -0.103024,0.587681 -0.148929,0.850983 -0.04591,0.263302 -0.08348,0.473345 -0.128832,0.73934 -0.04535,0.265994 -0.09851,0.587878 -0.176283,1.017681 -0.07777,0.429803 -0.180114,0.96759 -0.214299,1.279955 -0.03419,0.312366 -0.0019,0.398131 0.03486,0.475549 0.03675,0.07742 0.07726,0.146519 0.195313,0.183657 0.118057,0.03714 0.312691,0.04543 0.557829,-0.0085 0.245138,-0.05398 0.54218,-0.169537 0.855655,-0.492558 0.313475,-0.323021 0.645298,-0.854806 0.828882,-1.538848 0.183584,-0.684043 0.218564,-1.52219 0.128027,-2.51568 -0.09054,-0.99349 -0.307289,-2.142783 -0.548333,-2.718597 -0.241044,-0.575815 -0.508497,-0.574949 -0.64361,-0.574511 -0.135114,4.38e-4 -0.135139,4.65e-4 -0.150041,0.07922 z"
       id="path980"
       inkscape:path-effect="#path-effect982"
       inkscape:original-d="m 28.26274,20.935207 c -0.02654,0.158122 -0.05605,0.313458 -0.08819,0.466039 -0.02598,0.164395 -0.05493,0.326019 -0.08652,0.484881 -0.02571,0.169949 -0.05436,0.337115 -0.0857,0.501531 -0.03374,0.199329 -0.07025,0.395875 -0.109508,0.589666 -0.03033,0.180977 -0.06338,0.359173 -0.09921,0.534611 -0.04063,0.228324 -0.08404,0.453888 -0.130206,0.676685 -0.05147,0.319348 -0.105688,0.635921 -0.16268,0.949734 -0.03479,0.21282 -0.07237,0.422862 -0.112716,0.630143 -0.05039,0.32466 -0.103562,0.646541 -0.159475,0.965666 -0.09959,0.540567 -0.201929,1.078355 -0.307029,1.613384 0.03507,0.08853 0.06739,0.174289 0.09692,0.257315 0.04328,0.07189 0.0838,0.140986 0.121556,0.207345 0.197394,0.01099 0.392025,0.01935 0.583893,0.02488 0.299819,-0.112794 0.596861,-0.228351 0.891145,-0.346676 0.334599,-0.529038 0.666422,-1.060823 0.995488,-1.595382 0.03776,-0.835421 0.07274,-1.673568 0.104942,-2.514501 -0.214005,-1.146575 -0.430752,-2.295869 -0.650273,-3.447948 -0.264723,0.0035 -0.532175,0.0048 -0.802412,0.0026 z" />
    <path
       style="fill:#000000;fill-opacity:1;stroke-width:2.76388"
       d="m 27.802648,23.337889 c -0.470181,2.295518 -1.410111,6.884445 -2.060399,9.995052 -0.650288,3.110608 -1.010897,4.742884 -1.185807,5.650785 -0.17491,0.907901 -0.16473,1.090553 -0.09423,1.321876 0.0705,0.231322 0.199944,0.510889 0.564354,0.765055 0.364409,0.254166 0.961974,0.484954 1.562431,-0.383069 0.600457,-0.868024 1.207649,-2.83524 1.625236,-5.14805 0.417587,-2.31281 0.645224,-4.971829 0.815847,-7.314292 0.170622,-2.342462 0.284153,-4.36833 0.150062,-5.512513 -0.13409,-1.144183 -0.519112,-1.406191 -0.713212,-1.538276 -0.194101,-0.132086 -0.194106,-0.132086 -0.664287,2.163432 z"
       id="path1102"
       inkscape:path-effect="#path-effect1104"
       inkscape:original-d="m 28.272829,21.042371 c -0.937166,4.591691 -1.877095,9.180618 -2.819791,13.766784 -0.357857,1.635105 -0.718468,3.267381 -1.081848,4.896924 0.013,0.1854 0.02323,0.368049 0.03054,0.547927 0.132225,0.282347 0.261655,0.561918 0.388335,0.838734 0.600349,0.233548 1.19791,0.464346 1.792717,0.692375 0.609979,-1.964532 1.217171,-3.931748 1.821612,-5.901772 0.230395,-2.656361 0.458045,-5.315379 0.682924,-7.977212 0.116304,-2.023184 0.229815,-4.049053 0.340598,-6.077726 -0.38227,-0.259251 -0.767292,-0.521258 -1.155082,-0.786034 z" />
  </g>
</svg>
