<?xml version="1.0" encoding="UTF-8" standalone="no"?>
<!-- Created with Inkscape (http://www.inkscape.org/) -->

<svg
   width="120"
   height="120"
   viewBox="0 0 120 120"
   version="1.1"
   id="svg5"
   inkscape:version="1.2.2 (b0a8486541, 2022-12-01)"
   sodipodi:docname="logo.svg"
   xmlns:inkscape="http://www.inkscape.org/namespaces/inkscape"
   xmlns:sodipodi="http://sodipodi.sourceforge.net/DTD/sodipodi-0.dtd"
   xmlns="http://www.w3.org/2000/svg"
   xmlns:svg="http://www.w3.org/2000/svg">
  <sodipodi:namedview
     id="namedview7"
     pagecolor="#ffffff"
     bordercolor="#000000"
     borderopacity="0.25"
     inkscape:showpageshadow="2"
     inkscape:pageopacity="0.0"
     inkscape:pagecheckerboard="0"
     inkscape:deskcolor="#d1d1d1"
     inkscape:document-units="px"
     showgrid="true"
     inkscape:zoom="90.509668"
     inkscape:cx="47.425873"
     inkscape:cy="21.041951"
     inkscape:window-width="1003"
     inkscape:window-height="749"
     inkscape:window-x="160"
     inkscape:window-y="178"
     inkscape:window-maximized="0"
     inkscape:current-layer="layer1">
    <inkscape:grid
       type="xygrid"
       id="grid680" />
  </sodipodi:namedview>
  <defs
     id="defs2">
    <inkscape:path-effect
       effect="bspline"
       id="path-effect1104"
       is_visible="true"
       lpeversion="1"
       weight="33.333333"
       steps="2"
       helper_size="0"
       apply_no_weight="true"
       apply_with_weight="true"
       only_selected="false" />
    <inkscape:path-effect
       effect="bspline"
       id="path-effect982"
       is_visible="true"
       lpeversion="1"
       weight="33.333333"
       steps="2"
       helper_size="0"
       apply_no_weight="true"
       apply_with_weight="true"
       only_selected="false" />
    <inkscape:path-effect
       effect="bspline"
       id="path-effect3257"
       is_visible="true"
       lpeversion="1"
       weight="33.333333"
       steps="2"
       helper_size="0"
       apply_no_weight="true"
       apply_with_weight="true"
       only_selected="false" />
    <inkscape:path-effect
       effect="bspline"
       id="path-effect3252"
       is_visible="true"
       lpeversion="1"
       weight="33.333333"
       steps="2"
       helper_size="0"
       apply_no_weight="true"
       apply_with_weight="true"
       only_selected="false" />
    <inkscape:path-effect
       effect="bspline"
       id="path-effect2380"
       is_visible="true"
       lpeversion="1"
       weight="33.333333"
       steps="2"
       helper_size="0"
       apply_no_weight="true"
       apply_with_weight="true"
       only_selected="false" />
    <inkscape:path-effect
       effect="bspline"
       id="path-effect2372"
       is_visible="true"
       lpeversion="1"
       weight="33.333333"
       steps="2"
       helper_size="0"
       apply_no_weight="true"
       apply_with_weight="true"
       only_selected="false" />
    <inkscape:path-effect
       effect="bspline"
       id="path-effect1087"
       is_visible="true"
       lpeversion="1"
       weight="33.333333"
       steps="2"
       helper_size="0"
       apply_no_weight="true"
       apply_with_weight="true"
       only_selected="false" />
    <inkscape:path-effect
       effect="bspline"
       id="path-effect940"
       is_visible="true"
       lpeversion="1"
       weight="33.333333"
       steps="2"
       helper_size="0"
       apply_no_weight="true"
       apply_with_weight="true"
       only_selected="false" />
    <inkscape:path-effect
       effect="bspline"
       id="path-effect885"
       is_visible="true"
       lpeversion="1"
       weight="33.333333"
       steps="2"
       helper_size="0"
       apply_no_weight="true"
       apply_with_weight="true"
       only_selected="false" />
    <inkscape:path-effect
       effect="bspline"
       id="path-effect879"
       is_visible="true"
       lpeversion="1"
       weight="33.333333"
       steps="2"
       helper_size="0"
       apply_no_weight="true"
       apply_with_weight="true"
       only_selected="false" />
    <inkscape:path-effect
       effect="bspline"
       id="path-effect875"
       is_visible="true"
       lpeversion="1"
       weight="33.333333"
       steps="2"
       helper_size="0"
       apply_no_weight="true"
       apply_with_weight="true"
       only_selected="false" />
    <inkscape:path-effect
       effect="bspline"
       id="path-effect871"
       is_visible="true"
       lpeversion="1"
       weight="33.333333"
       steps="2"
       helper_size="0"
       apply_no_weight="true"
       apply_with_weight="true"
       only_selected="false" />
    <inkscape:path-effect
       effect="bspline"
       id="path-effect867"
       is_visible="true"
       lpeversion="1"
       weight="33.333333"
       steps="2"
       helper_size="0"
       apply_no_weight="true"
       apply_with_weight="true"
       only_selected="false" />
  </defs>
  <g
     inkscape:label="Capa 1"
     inkscape:groupmode="layer"
     id="layer1">
    <path
       style="fill:#000000;fill-opacity:1;stroke-width:2.55549"
       d="m 33.0635,40.430433 c 2.462027,-1.260903 7.385203,-3.782261 11.685864,-3.273715 4.300661,0.508546 7.976934,4.043902 11.047052,5.908728 3.070118,1.864826 5.533857,2.061332 10.180657,1.901626 4.646799,-0.159706 11.476737,-0.675225 16.680769,-1.424713 5.204031,-0.749489 8.782528,-1.732629 11.418653,-1.522259 2.636124,0.21037 4.328604,1.61148 5.305306,2.514137 0.976699,0.902657 1.238409,1.306123 1.243979,1.849468 0.006,0.543346 -0.24247,1.227975 -0.41046,1.704935 -0.16798,0.476959 -0.255916,0.746104 -0.364695,0.914142 -0.108778,0.168038 -0.239749,0.237052 -2.69448,1.494987 -2.454732,1.257934 -7.232096,3.704198 -9.763208,5.291534 -2.531111,1.587336 -2.812483,2.312659 -0.849329,4.569788 1.963155,2.257129 6.16734,6.044535 8.421523,8.217107 2.254183,2.172572 2.55894,2.729271 2.959863,3.626009 0.400924,0.896738 0.898324,2.133189 1.079364,3.540947 0.181039,1.407758 0.04709,2.986762 -0.133159,3.799997 -0.180249,0.813235 -0.408797,0.862683 -0.775246,1.17474 -0.36645,0.312057 -0.868668,0.88602 -2.905547,1.395257 -2.036879,0.509236 -5.610352,0.954227 -8.968305,1.038299 C 82.864148,83.235518 79.72219,82.95812 74.724748,82.791609 69.727306,82.625098 62.875392,82.569731 57.303357,82.322855 51.731323,82.075978 47.439603,81.637354 44.248491,79.859989 41.05738,78.082624 38.968104,74.964126 36.496923,71.495972 34.025742,68.027818 31.17284,64.210589 29.410413,61.060564 27.647986,57.910539 26.977389,55.427627 26.79274,53.740628 c -0.184649,-1.687 0.11852,-2.577791 0.42119,-3.467114 0.09755,-1.051005 0.194873,-2.099591 0.233539,-3.269302 0.03867,-1.169711 0.01819,-2.457961 0.534457,-3.364381 0.516268,-0.906419 1.568362,-1.427678 2.093959,-1.688083 0.525596,-0.260406 0.525588,-0.260412 2.987615,-1.521315 z"
       id="path3255"
       inkscape:path-effect="#path-effect3257"
       inkscape:original-d="m 30.601473,41.691336 c 4.925639,-2.518711 9.848816,-5.040068 14.76953,-7.564072 3.678883,3.538144 7.355157,7.073499 11.029042,10.606283 2.466296,0.199149 4.930035,0.395657 7.391358,0.589529 6.832682,-0.512892 13.66262,-1.028413 20.490234,-1.546588 3.581084,-0.980531 7.159582,-1.963667 10.735673,-2.94947 1.695013,1.40381 3.387493,2.80492 5.07754,4.203413 0.26418,0.406121 0.52589,0.809585 0.78513,1.210406 -0.24561,0.687305 -0.49365,1.371937 -0.74416,2.053935 -0.0855,0.271802 -0.173424,0.54095 -0.263807,0.807457 -0.128549,0.07166 -0.259504,0.140704 -0.392963,0.207071 -4.77607,2.449464 -9.553433,4.895729 -14.335222,7.340393 -0.278919,0.728142 -0.560286,1.453467 -0.844281,2.176391 4.207093,3.790272 8.411276,7.57768 12.613325,11.362911 0.307328,0.55929 0.612082,1.11599 0.914292,1.670133 0.500068,1.239288 0.997466,2.47574 1.492426,3.709914 -0.131449,1.582103 -0.265391,3.161107 -0.401959,4.7383 -0.226037,0.05202 -0.454588,0.101455 -0.685649,0.148345 -0.499773,0.576628 -1.001996,1.150588 -1.506679,1.721917 -3.571424,0.44761 -7.144897,0.892601 -10.721502,1.335109 -3.139857,-0.274882 -6.281815,-0.55228 -9.426674,-0.832266 C 69.727286,82.627629 62.875371,82.572275 56.020488,82.514341 51.731091,82.078249 47.439371,81.639626 43.144845,81.19842 41.057963,78.082233 38.968686,74.963736 36.876663,71.842396 34.026155,68.02751 31.173254,64.21028 28.317778,60.390471 27.649725,57.910069 26.979127,55.427158 26.30592,52.941484 c 0.305242,-0.886811 0.90801,-2.66797 0.90801,-2.66797 0,0 0.19764,-2.099334 0.292646,-3.153014 -0.01789,-1.28604 -0.03839,-2.574289 -0.06144,-3.865353 1.054596,-0.518631 2.10669,-1.03989 3.156345,-1.563805 z"
       sodipodi:nodetypes="sccccccccccccccccccccccccccccss"
       inkscape:label="cuerpo" />
    <ellipse
       style="fill:#7a0000;fill-opacity:1;stroke-width:1.66666"
       id="path479-6"
       cx="99.901321"
       cy="82.359459"
       rx="15.458599"
       ry="15.200662"
       inkscape:label="rueda-a" />
    <ellipse
       style="fill:#7a0000;fill-opacity:1;stroke-width:1.66786"
       id="path479-6-3"
       cx="20.632824"
       cy="84.724358"
       rx="15.402011"
       ry="15.278644"
       inkscape:label="rueda-d" />
    <ellipse
       style="fill:#4d4d4d;fill-opacity:1;stroke-width:0.834507"
       id="path479-6-3-7"
       cx="20.626827"
       cy="84.78344"
       rx="7.7062874"
       ry="7.6445608"
       inkscape:label="int-rueda-d" />
    <ellipse
       style="fill:#4d4d4d;fill-opacity:1;stroke-width:0.834507"
       id="path479-6-3-7-3"
       cx="99.805626"
       cy="82.098213"
       rx="7.7062874"
       ry="7.6445608"
       inkscape:label="int-rueda-d" />
    <path
       style="fill:#4d4d4d;stroke-width:2.81164"
       d="m 26.086642,19.521022 c 2.614473,-1.206882 5.076755,1.908925 6.140021,4.026098 1.063266,2.117174 0.730726,3.236492 0.300076,4.5279 -0.43065,1.291407 -0.959311,2.755041 -3.404258,3.401991 -2.444948,0.646951 -6.809266,0.479217 -7.611433,-2.369464 -0.802166,-2.848681 1.961121,-8.379642 4.575594,-9.586525 z"
       id="path1085"
       inkscape:path-effect="#path-effect1087"
       inkscape:original-d="m 26.236339,15.195176 c 2.464656,3.119059 4.92694,6.234864 7.386839,9.347414 -0.330175,1.122617 -0.662712,2.241936 -0.99764,3.358023 -0.526302,1.466951 -1.054964,2.930584 -1.586017,4.390994 -4.36211,-0.164469 -8.726427,-0.332221 -13.093211,-0.503213 2.765775,-5.527928 5.529064,-11.058888 8.290029,-16.593218 z"
       inkscape:label="foco" />
    <path
       id="path484"
       style="fill:#000000;stroke-width:3.00427"
       inkscape:label="palo-manillar"
       d="m 31.747559,21.831237 c -0.002,0.003 -0.003,0.0069 -0.0056,0.0099 -0.01016,0.01584 -0.01992,0.03284 -0.02691,0.04993 -0.0084,0.01993 -0.02044,0.03735 -0.03223,0.05498 -0.01533,0.06289 -0.03419,0.122535 -0.05364,0.184863 -0.04922,0.156471 -0.10595,0.313327 -0.155655,0.469647 -0.03799,0.122204 -0.07429,0.24502 -0.101983,0.369723 -0.01814,0.08167 -0.023,0.118164 -0.03757,0.199864 -0.02908,0.160841 -0.05714,0.322986 -0.08052,0.48463 -0.0079,0.04935 -0.01356,0.100541 -0.02121,0.149905 -0.0013,0.0087 -0.0066,0.04873 -0.01098,0.05996 -0.0028,0.0089 -0.0066,0.01687 -0.01098,0.02504 -0.03799,0.07685 -0.07708,-0.05583 -0.09662,-0.07993 -0.564799,2.54294 -1.12601,5.085526 -1.690662,7.62925 -1.771655,7.864615 -3.571684,15.721635 -5.340345,23.587219 -2.136625,9.501963 -4.341063,19.026905 -5.705316,28.743328 l 4.610413,2.817881 c 0.121284,-0.951119 0.215913,-1.907439 0.364966,-2.852855 1.370906,-8.694079 3.302099,-17.251723 5.21153,-25.790552 1.759355,-7.867619 3.559516,-15.719828 5.334982,-23.582224 l 2.173707,-9.717674 z m -0.262992,0.349735 -0.0056,0.0052 c -0.002,0.0099 -0.003,0.01992 -0.0056,0.02998 0.003,-0.0115 0.0071,-0.02377 0.01099,-0.03498 z" />
    <path
       id="path960"
       style="fill:#000000;stroke-width:2.76963"
       inkscape:label="manillar"
       d="m 37.292801,19.804823 c -0.402896,-1.4e-4 -0.805876,0.0054 -1.208878,0.02173 -1.159952,0.07169 -2.360038,0.188057 -3.367963,0.827742 -0.161097,0.12969 -0.330948,0.248724 -0.48039,0.392088 -0.27761,0.266274 -0.516015,0.568626 -0.733771,0.887646 -0.0018,0.0044 -2.68e-4,0.0064 -0.0054,0.01098 -0.01098,0.01584 -0.02069,0.03291 -0.03169,0.04902 -0.0069,0.01098 -0.01457,0.02173 -0.02097,0.03265 -0.0052,0.0084 -0.0115,0.01814 -0.0161,0.02736 -0.0047,0.0091 -0.0069,0.01789 -0.01074,0.02735 -0.0082,0.02173 -0.01992,0.04073 -0.03169,0.0599 -0.01508,0.06854 -0.03365,0.133549 -0.0528,0.2015 -0.04842,0.170553 -0.104184,0.341509 -0.153073,0.511893 -0.03735,0.133216 -0.07306,0.267081 -0.100308,0.402978 -0.01789,0.08903 -0.02274,0.128796 -0.03696,0.217828 -0.02708,0.166106 -0.05167,0.334033 -0.0739,0.501007 l 3.975046,2.298069 c 0.548495,-0.833187 0.967806,-1.832597 1.726214,-2.505007 0.131607,-0.116656 0.289181,-0.19856 0.432875,-0.299515 0.98597,-0.486594 2.114844,-0.538763 3.193762,-0.571791 0.801651,-0.01328 1.600373,0.0033 2.401921,0.01635 0.86513,0.0087 1.732124,0.0044 2.597239,0.0054 0.644136,9.84e-4 1.287984,0.0047 1.932097,0.0054 -0.07113,-0.333839 -0.145294,-0.668548 -0.216438,-1.002016 -0.06244,-0.296614 -0.156549,-0.733938 -0.21645,-1.034674 -0.06547,-0.328813 -0.12831,-0.657828 -0.168943,-0.991114 -0.0028,-0.02351 -0.0042,-0.04716 -0.0054,-0.0708 -0.549035,1.21e-4 -1.097981,1.58e-4 -1.647032,0 -0.616285,2.64e-4 -1.231345,6.49e-4 -1.847629,0 -0.675805,4.03e-4 -1.351314,0.0059 -2.027115,0.0054 -0.865341,-9.05e-4 -1.731992,-1.16e-4 -2.597245,-0.01636 -0.403141,-0.0049 -0.805976,-0.01098 -1.208875,-0.01098 z m -6.324175,3.387211 c -0.0012,0.01279 -0.0042,0.02555 -0.0054,0.03812 0.0024,-0.01279 0.0077,-0.02555 0.01074,-0.03812 z" />
    <path
       style="fill:#000000;fill-opacity:1;stroke-width:3.45434"
       d="m 30.792423,24.04953 c 0.01142,-0.05369 0.03468,-0.163103 0.0542,-0.257299 0.01952,-0.0942 0.03525,-0.173177 0.05197,-0.243777 0.01672,-0.0706 0.03448,-0.132337 0.05225,-0.199157 0.01776,-0.06682 0.03553,-0.138962 0.05849,-0.222914 0.02296,-0.08395 0.05115,-0.179486 0.08915,-0.314085 0.038,-0.134598 0.08579,-0.308337 0.143575,-0.477288 0.05778,-0.16895 0.125554,-0.332539 0.211536,-0.476717 0.08598,-0.144177 0.189532,-0.267637 0.302704,-0.388254 0.113172,-0.120618 0.235577,-0.23807 0.374782,-0.365296 0.139206,-0.127227 0.295041,-0.264128 0.512405,-0.327532 0.217364,-0.0634 0.492966,-0.05416 0.5252,0.39413 0.03223,0.448288 -0.174298,1.33381 -0.610587,1.894214 -0.43629,0.560405 -1.10538,0.798523 -1.441257,0.918056 -0.335877,0.119533 -0.335829,0.119609 -0.324412,0.06592 z"
       id="path2370"
       inkscape:path-effect="#path-effect2372"
       inkscape:original-d="m 30.781006,24.10322 c 0.02727,-0.106436 0.0506,-0.215836 0.06979,-0.328193 0.01992,-0.07608 0.03537,-0.155118 0.04725,-0.237123 0.02172,-0.05877 0.03945,-0.120516 0.05327,-0.185195 0.02173,-0.06914 0.03945,-0.141291 0.05327,-0.216371 0.03207,-0.09262 0.06041,-0.188109 0.08458,-0.286664 0.05182,-0.170733 0.09961,-0.344473 0.143363,-0.521148 0.07178,-0.160613 0.139605,-0.324179 0.203288,-0.490706 0.107585,-0.120491 0.211108,-0.243972 0.310634,-0.370364 0.126444,-0.114459 0.248826,-0.231935 0.367202,-0.352343 0.159845,-0.133934 0.315681,-0.270834 0.467491,-0.410691 0.279602,0.01227 0.555197,0.02173 0.826755,0.02774 -0.202495,0.888514 -0.40904,1.774033 -0.619606,2.656605 -0.665097,0.241109 -1.334192,0.479213 -2.007335,0.714377 z"
       inkscape:label="arreglar-exterior-manillar" />
    <path
       style="fill:#000000;fill-opacity:1;stroke-width:3.94172"
       d="m 36.044854,24.817155 c 0.02164,-0.06811 0.06547,-0.206026 0.09996,-0.289673 0.03449,-0.08365 0.05836,-0.110491 0.08158,-0.142925 0.02322,-0.03243 0.0462,-0.071 0.07832,-0.115739 0.03212,-0.04474 0.07295,-0.09498 0.1028,-0.135968 0.02985,-0.04099 0.04922,-0.07343 0.0868,-0.119774 0.03758,-0.04635 0.09272,-0.105796 0.157806,-0.175909 0.06509,-0.07011 0.140121,-0.150888 0.207776,-0.262931 0.06766,-0.112043 0.128879,-0.256985 -0.08127,-0.384968 -0.210152,-0.127984 -0.697319,-0.238941 -1.090149,-0.150963 -0.392829,0.08798 -0.686834,0.376702 -0.612698,0.720122 0.07414,0.34342 0.512877,0.737052 0.730132,0.931969 0.217255,0.194918 0.217303,0.194866 0.238946,0.126759 z"
       id="path2378"
       inkscape:path-effect="#path-effect2380"
       inkscape:original-d="m 36.023211,24.885262 c 0.04845,-0.134572 0.0923,-0.272485 0.131478,-0.413746 0.02873,-0.02402 0.05275,-0.05073 0.07213,-0.08112 0.02779,-0.0353 0.05071,-0.0739 0.06904,-0.115891 0.0454,-0.04683 0.08624,-0.09706 0.122356,-0.150568 0.02402,-0.02917 0.04355,-0.06151 0.05806,-0.09724 0.05977,-0.05612 0.114919,-0.115559 0.165416,-0.178347 0.07971,-0.0774 0.154709,-0.158209 0.225111,-0.242336 0.06589,-0.14165 0.127089,-0.286602 0.183719,-0.434939 -0.482547,-0.107609 -0.969719,-0.218544 -1.461525,-0.332875 -0.289405,0.292101 -0.583406,0.580829 -0.882059,0.866217 0.443371,0.396989 0.882119,0.790613 1.316226,1.180897 z"
       inkscape:label="arreglar-interior-manillar" />
    <path
       style="fill:none;fill-rule:evenodd;stroke:#000000;stroke-width:2.82523px;stroke-linecap:butt;stroke-linejoin:miter;stroke-opacity:1"
       d="m 47.63629,22.930703 0.0077,-3.108071"
       id="path2507"
       inkscape:connector-type="polyline"
       inkscape:connector-curvature="0"
       inkscape:label="arreglar-negro-manillar" />
    <rect
       style="fill:#007bff;fill-opacity:1;stroke-width:2.69568"
       id="rect2785"
       width="5.0410542"
       height="1.6213025"
       x="42.368198"
       y="-26.025881"
       transform="matrix(0.61797912,0.78619451,-0.8158098,0.5783203,0,0)"
       inkscape:label="arreglar-blanco-manillar" />
    <rect
       style="fill:#007bff;fill-opacity:1;stroke-width:2.55549"
       id="rect2964"
       width="1.0699856"
       height="1.3326156"
       x="48.401703"
       y="19.161009"
       inkscape:label="arreglar-blanco-manillar-2" />
    <rect
       style="fill:#4d4d4d;fill-opacity:1;stroke-width:3.55285"
       id="rect3021"
       width="9.0816736"
       height="3.0049443"
       x="26.056129"
       y="79.526932"
       transform="matrix(0.98825821,0.15279306,-0.11787807,0.99302808,0,0)"
       inkscape:label="arreglar-palo-manillar-abajo" />
    <path
       style="fill:#000000;stroke-width:2.55549"
       d="m 30.853354,23.704057 c -0.01378,0.07281 -0.04096,0.216457 -0.06787,0.363003 -0.02691,0.146546 -0.05358,0.296 -0.08012,0.448014 -0.02653,0.152014 -0.05295,0.306588 -0.08304,0.474726 -0.03009,0.168138 -0.06384,0.349864 -0.09601,0.523121 -0.03216,0.173257 -0.06274,0.338015 -0.0981,0.524663 -0.03536,0.186648 -0.07549,0.395206 -0.120606,0.645873 -0.04512,0.250668 -0.09526,0.543371 -0.137701,0.78682 -0.04245,0.243449 -0.07718,0.437657 -0.119118,0.683596 -0.04193,0.245938 -0.09108,0.543551 -0.162992,0.940947 -0.07191,0.397397 -0.166533,0.894635 -0.198142,1.183448 -0.03161,0.288812 -0.0017,0.368114 0.03223,0.439694 0.03397,0.07158 0.07143,0.135477 0.180589,0.169813 0.109154,0.03434 0.289113,0.04201 0.515768,-0.0079 0.226655,-0.04991 0.501301,-0.156753 0.79114,-0.455419 0.289839,-0.298666 0.596643,-0.790355 0.766385,-1.422821 0.169742,-0.632466 0.202085,-1.407419 0.118375,-2.326001 -0.08371,-0.918583 -0.284121,-1.98122 -0.50699,-2.51362 -0.22287,-0.5324 -0.470157,-0.5316 -0.595083,-0.531196 -0.124926,4.04e-4 -0.124942,4.28e-4 -0.138721,0.07324 z"
       id="path980"
       inkscape:path-effect="#path-effect982"
       inkscape:original-d="m 30.867133,23.631243 c -0.02454,0.146199 -0.05182,0.289823 -0.08154,0.4309 -0.02402,0.152 -0.05078,0.301437 -0.08,0.448321 -0.02377,0.157136 -0.05026,0.311697 -0.07924,0.463717 -0.0312,0.1843 -0.06495,0.366026 -0.101251,0.545206 -0.02804,0.167331 -0.0586,0.332092 -0.09173,0.494302 -0.03757,0.211109 -0.07771,0.419665 -0.120388,0.625664 -0.04759,0.295269 -0.09772,0.587973 -0.150415,0.878125 -0.03217,0.196773 -0.06692,0.390979 -0.104217,0.582631 -0.04659,0.300182 -0.09575,0.597793 -0.147451,0.892856 -0.09208,0.499809 -0.186704,0.997048 -0.28388,1.491737 0.03243,0.08185 0.06231,0.161148 0.08961,0.237914 0.04001,0.06647 0.07749,0.130356 0.11239,0.191712 0.182512,0.01016 0.362468,0.01789 0.539869,0.02301 0.277213,-0.10429 0.551859,-0.211134 0.823954,-0.320537 0.309371,-0.48915 0.616174,-0.980839 0.920429,-1.475093 0.03491,-0.772431 0.06725,-1.547384 0.09703,-2.324911 -0.19787,-1.060125 -0.398274,-2.122764 -0.601243,-3.187978 -0.244764,0.0033 -0.49205,0.0044 -0.741911,0.0024 z" />
    <path
       style="fill:#000000;fill-opacity:1;stroke-width:2.55549"
       d="m 30.441731,25.852766 c -0.43473,2.12244 -1.303791,6.365368 -1.905048,9.241439 -0.601257,2.876071 -0.934677,4.385277 -1.096398,5.224723 -0.161722,0.839447 -0.152308,1.008326 -0.08712,1.222207 0.06519,0.213882 0.184869,0.47237 0.521802,0.707372 0.336933,0.235002 0.889443,0.448389 1.444627,-0.354186 0.555184,-0.802576 1.116594,-2.621467 1.502695,-4.759894 0.386102,-2.138427 0.596575,-4.59696 0.754333,-6.762804 0.157758,-2.165845 0.262729,-4.038965 0.138748,-5.096878 -0.12398,-1.057913 -0.479972,-1.300165 -0.659437,-1.422292 -0.179466,-0.122126 -0.179473,-0.122126 -0.614203,2.000313 z"
       id="path1102"
       inkscape:path-effect="#path-effect1104"
       inkscape:original-d="m 30.876461,23.730327 c -0.866506,4.245484 -1.735565,8.488412 -2.607183,12.728787 -0.330875,1.51182 -0.664296,3.021025 -1.000278,4.527703 0.01202,0.171421 0.02147,0.340298 0.02824,0.506613 0.122255,0.261059 0.241927,0.519551 0.359055,0.775495 0.555083,0.215939 1.107589,0.429336 1.657549,0.640171 0.563987,-1.816409 1.125397,-3.6353 1.684265,-5.456786 0.213024,-2.456075 0.423508,-4.914607 0.631432,-7.375742 0.107535,-1.870639 0.212488,-3.74376 0.314918,-5.619473 -0.353448,-0.239704 -0.70944,-0.481956 -1.067991,-0.726768 z" />
  </g>
</svg>
