<?xml version="1.0" encoding="UTF-8" standalone="no"?>
<!-- Created with Inkscape (http://www.inkscape.org/) -->

<svg
   width="120"
   height="120"
   viewBox="0 0 120 120"
   version="1.1"
   id="svg5"
   inkscape:version="1.2.2 (b0a8486541, 2022-12-01)"
   sodipodi:docname="logo.svg"
   xmlns:inkscape="http://www.inkscape.org/namespaces/inkscape"
   xmlns:sodipodi="http://sodipodi.sourceforge.net/DTD/sodipodi-0.dtd"
   xmlns="http://www.w3.org/2000/svg"
   xmlns:svg="http://www.w3.org/2000/svg">
  <sodipodi:namedview
     id="namedview7"
     pagecolor="#ffffff"
     bordercolor="#000000"
     borderopacity="0.25"
     inkscape:showpageshadow="2"
     inkscape:pageopacity="0.0"
     inkscape:pagecheckerboard="0"
     inkscape:deskcolor="#d1d1d1"
     inkscape:document-units="px"
     showgrid="true"
     inkscape:zoom="22.627417"
     inkscape:cx="63.551222"
     inkscape:cy="54.999649"
     inkscape:window-width="1854"
     inkscape:window-height="1011"
     inkscape:window-x="66"
     inkscape:window-y="32"
     inkscape:window-maximized="1"
     inkscape:current-layer="layer1">
    <inkscape:grid
       type="xygrid"
       id="grid680" />
  </sodipodi:namedview>
  <defs
     id="defs2">
    <inkscape:path-effect
       effect="bspline"
       id="path-effect3257"
       is_visible="true"
       lpeversion="1"
       weight="33.333333"
       steps="2"
       helper_size="0"
       apply_no_weight="true"
       apply_with_weight="true"
       only_selected="false" />
    <inkscape:path-effect
       effect="bspline"
       id="path-effect3252"
       is_visible="true"
       lpeversion="1"
       weight="33.333333"
       steps="2"
       helper_size="0"
       apply_no_weight="true"
       apply_with_weight="true"
       only_selected="false" />
    <inkscape:path-effect
       effect="bspline"
       id="path-effect2380"
       is_visible="true"
       lpeversion="1"
       weight="33.333333"
       steps="2"
       helper_size="0"
       apply_no_weight="true"
       apply_with_weight="true"
       only_selected="false" />
    <inkscape:path-effect
       effect="bspline"
       id="path-effect2372"
       is_visible="true"
       lpeversion="1"
       weight="33.333333"
       steps="2"
       helper_size="0"
       apply_no_weight="true"
       apply_with_weight="true"
       only_selected="false" />
    <inkscape:path-effect
       effect="bspline"
       id="path-effect1087"
       is_visible="true"
       lpeversion="1"
       weight="33.333333"
       steps="2"
       helper_size="0"
       apply_no_weight="true"
       apply_with_weight="true"
       only_selected="false" />
    <inkscape:path-effect
       effect="bspline"
       id="path-effect940"
       is_visible="true"
       lpeversion="1"
       weight="33.333333"
       steps="2"
       helper_size="0"
       apply_no_weight="true"
       apply_with_weight="true"
       only_selected="false" />
    <inkscape:path-effect
       effect="bspline"
       id="path-effect885"
       is_visible="true"
       lpeversion="1"
       weight="33.333333"
       steps="2"
       helper_size="0"
       apply_no_weight="true"
       apply_with_weight="true"
       only_selected="false" />
    <inkscape:path-effect
       effect="bspline"
       id="path-effect879"
       is_visible="true"
       lpeversion="1"
       weight="33.333333"
       steps="2"
       helper_size="0"
       apply_no_weight="true"
       apply_with_weight="true"
       only_selected="false" />
    <inkscape:path-effect
       effect="bspline"
       id="path-effect875"
       is_visible="true"
       lpeversion="1"
       weight="33.333333"
       steps="2"
       helper_size="0"
       apply_no_weight="true"
       apply_with_weight="true"
       only_selected="false" />
    <inkscape:path-effect
       effect="bspline"
       id="path-effect871"
       is_visible="true"
       lpeversion="1"
       weight="33.333333"
       steps="2"
       helper_size="0"
       apply_no_weight="true"
       apply_with_weight="true"
       only_selected="false" />
    <inkscape:path-effect
       effect="bspline"
       id="path-effect867"
       is_visible="true"
       lpeversion="1"
       weight="33.333333"
       steps="2"
       helper_size="0"
       apply_no_weight="true"
       apply_with_weight="true"
       only_selected="false" />
  </defs>
  <g
     inkscape:label="Capa 1"
     inkscape:groupmode="layer"
     id="layer1">
    <path
       style="fill:#000000;fill-opacity:1"
       d="m 48.853077,53.662935 c 0.963432,-0.493412 2.889951,-1.48006 4.57287,-1.281058 1.682918,0.199002 3.121504,1.582445 4.322891,2.312182 1.201388,0.729737 2.165489,0.806633 3.983856,0.744137 1.818368,-0.0625 4.491034,-0.264226 6.527458,-0.557514 2.036424,-0.293287 3.436745,-0.678005 4.468305,-0.595684 1.031559,0.08232 1.693855,0.630597 2.076054,0.983822 0.3822,0.353224 0.484609,0.511106 0.48679,0.723727 0.0022,0.21262 -0.09489,0.480526 -0.16062,0.667166 -0.06574,0.186641 -0.100147,0.291966 -0.142712,0.357721 -0.04257,0.06575 -0.09382,0.09276 -1.054393,0.585013 -0.960576,0.492251 -2.830038,1.449514 -3.820503,2.070665 -0.990465,0.62115 -1.10057,0.904981 -0.332357,1.788231 0.768214,0.883251 2.41338,2.365326 3.295479,3.215489 0.882098,0.850163 1.001355,1.068009 1.158243,1.418917 0.156887,0.350908 0.351529,0.834752 0.422373,1.38563 0.07084,0.550879 0.01843,1.168769 -0.05211,1.487001 -0.07054,0.318233 -0.159968,0.337583 -0.303366,0.459696 -0.143398,0.122114 -0.339924,0.346714 -1.136988,0.545987 -0.797064,0.199273 -2.195423,0.373405 -3.509445,0.406304 -1.314021,0.0329 -2.543518,-0.07565 -4.4991,-0.140811 -1.955581,-0.06516 -4.636847,-0.08682 -6.817275,-0.183431 -2.180428,-0.09661 -3.859848,-0.268248 -5.108582,-0.963759 -1.248734,-0.695512 -2.066302,-1.915831 -3.033315,-3.272976 -0.967014,-1.357145 -2.083401,-2.85089 -2.773067,-4.083546 -0.689666,-1.232657 -0.952082,-2.20426 -1.024338,-2.864411 -0.07226,-0.66015 0.04638,-1.008731 0.164818,-1.356738 0.03817,-0.411275 0.07626,-0.821605 0.09139,-1.279332 0.01513,-0.457727 0.0071,-0.96184 0.209145,-1.316536 0.202025,-0.354697 0.613727,-0.558674 0.819402,-0.660575 0.205674,-0.101901 0.205665,-0.101905 1.169096,-0.595317 z"
       id="path3255"
       inkscape:path-effect="#path-effect3257"
       inkscape:original-d="m 47.889646,54.156347 c 1.927483,-0.985613 3.854002,-1.972261 5.779558,-2.959945 1.439607,1.384534 2.878193,2.767976 4.315844,4.150412 0.965102,0.07793 1.929203,0.154827 2.892359,0.230692 2.673738,-0.200703 5.346404,-0.402435 8.018161,-0.605205 1.40134,-0.383698 2.801661,-0.768415 4.201046,-1.154176 0.663286,0.549334 1.325581,1.097611 1.986926,1.644864 0.103376,0.158922 0.205785,0.316804 0.307233,0.473652 -0.09611,0.268954 -0.193173,0.536861 -0.291205,0.803738 -0.03344,0.106361 -0.06786,0.211683 -0.103231,0.315971 -0.0503,0.02804 -0.101545,0.05506 -0.153769,0.08103 -1.868955,0.958516 -3.738417,1.915779 -5.609607,2.872416 -0.109146,0.284934 -0.219252,0.568765 -0.330381,0.851657 1.646301,1.483196 3.291467,2.96527 4.935798,4.446493 0.120263,0.218859 0.23952,0.436705 0.357776,0.65355 0.195686,0.484954 0.390328,0.968798 0.584013,1.45175 -0.05144,0.619103 -0.103853,1.236993 -0.157295,1.854174 -0.08845,0.02035 -0.177885,0.0397 -0.268304,0.05805 -0.195571,0.225644 -0.392097,0.450244 -0.58959,0.673814 -1.397555,0.175157 -2.795914,0.349289 -4.195497,0.52245 -1.228678,-0.107566 -2.458175,-0.216116 -3.688812,-0.325679 -2.680454,-0.02067 -5.36172,-0.04233 -8.044148,-0.065 -1.678511,-0.17065 -3.357931,-0.342291 -5.038449,-0.514942 -0.816631,-1.219414 -1.634199,-2.439733 -2.452842,-3.661164 -1.11545,-1.492828 -2.231837,-2.986572 -3.349231,-4.481325 -0.26142,-0.970622 -0.523836,-1.942226 -0.787273,-2.914911 0.119446,-0.347023 0.355319,-1.04402 0.355319,-1.04402 0,0 0.07734,-0.821504 0.114517,-1.233826 -0.007,-0.503248 -0.01502,-1.007361 -0.02404,-1.512575 0.412681,-0.202949 0.824383,-0.406926 1.23513,-0.611943 z"
       sodipodi:nodetypes="sccccccccccccccccccccccccccccss"
       inkscape:label="cuerpo"
       sodipodi:insensitive="true" />
    <ellipse
       style="fill:#1a1a1a;stroke-width:0.652191"
       id="path479-6"
       cx="75.007812"
       cy="70.07045"
       rx="6.049202"
       ry="5.9482665"
       inkscape:label="rueda-a" />
    <ellipse
       style="fill:#1a1a1a;stroke-width:0.652663"
       id="path479-6-3"
       cx="43.98875"
       cy="70.995872"
       rx="6.0270576"
       ry="5.9787822"
       inkscape:label="rueda-d" />
    <ellipse
       style="fill:#666666;fill-opacity:1;stroke-width:0.326556"
       id="path479-6-3-7"
       cx="43.986404"
       cy="71.01899"
       rx="3.0155959"
       ry="2.9914415"
       inkscape:label="int-rueda-d" />
    <ellipse
       style="fill:#666666;fill-opacity:1;stroke-width:0.326556"
       id="path479-6-3-7-3"
       cx="74.97036"
       cy="69.968216"
       rx="3.0155959"
       ry="2.9914415"
       inkscape:label="int-rueda-d" />
    <path
       style="fill:#000000;stroke-width:1.10024"
       d="m 46.122919,45.480742 c 1.023086,-0.472273 1.986617,0.746993 2.40269,1.575477 0.416073,0.828485 0.285945,1.266492 0.117425,1.771841 -0.168521,0.505349 -0.375394,1.078092 -1.332142,1.331255 -0.956748,0.253163 -2.664577,0.187525 -2.978478,-0.92721 -0.313901,-1.114735 0.767419,-3.279091 1.790505,-3.751363 z"
       id="path1085"
       inkscape:path-effect="#path-effect1087"
       inkscape:original-d="m 46.181498,43.787967 c 0.96446,1.220539 1.927992,2.439804 2.89059,3.657796 -0.129203,0.439298 -0.25933,0.877306 -0.390393,1.314049 -0.20595,0.574042 -0.412824,1.146785 -0.620634,1.718268 -1.706965,-0.06436 -3.414793,-0.130004 -5.123587,-0.196916 1.082293,-2.163168 2.163613,-4.327523 3.244024,-6.493197 z"
       inkscape:label="foco" />
    <path
       id="path484"
       style="fill:#000000;stroke-width:1.17562"
       inkscape:label="palo-manillar"
       d="m 48.338128,46.384766 c -8.21e-4,0.0012 -0.0012,0.0027 -0.0022,0.0039 -0.004,0.0062 -0.0078,0.01285 -0.01053,0.01954 -0.0033,0.0078 -0.008,0.01462 -0.01261,0.02151 -0.006,0.02461 -0.01338,0.04795 -0.02099,0.07234 -0.01926,0.06123 -0.04146,0.12261 -0.06091,0.183781 -0.01487,0.04782 -0.02907,0.09588 -0.03991,0.144678 -0.0071,0.03196 -0.009,0.04624 -0.0147,0.07821 -0.01138,0.06294 -0.02236,0.12639 -0.03151,0.189644 -0.0031,0.01931 -0.0053,0.03934 -0.0083,0.05866 -5.38e-4,0.0034 -0.0026,0.01907 -0.0043,0.02346 -0.0011,0.0035 -0.0026,0.0066 -0.0043,0.0098 -0.01487,0.03007 -0.03016,-0.02185 -0.03781,-0.03128 -0.221015,0.995094 -0.440626,1.990049 -0.661584,2.98545 -0.693277,3.077552 -1.397658,6.152132 -2.089764,9.230064 -0.836096,3.718273 -1.698729,7.445538 -2.232583,11.247733 l 1.80413,1.102683 c 0.04746,-0.372189 0.08449,-0.746412 0.142817,-1.116369 0.536458,-3.402135 1.292165,-6.750881 2.039357,-10.092264 0.688464,-3.078728 1.392896,-6.151425 2.087665,-9.228109 l 0.850607,-3.802684 z m -0.102913,0.136857 -0.0022,0.002 c -8.34e-4,0.0039 -0.0012,0.0078 -0.0022,0.01173 0.0012,-0.0045 0.0028,-0.0093 0.0043,-0.01369 z" />
    <path
       id="path960"
       style="fill:#000000;stroke-width:1.0838"
       inkscape:label="manillar"
       d="m 50.508072,45.591797 c -0.15766,-5.5e-5 -0.315353,0.0021 -0.473054,0.0085 -0.453908,0.02805 -0.923521,0.07359 -1.317939,0.323909 -0.06304,0.05075 -0.129505,0.09733 -0.187984,0.153431 -0.108634,0.104197 -0.201925,0.222512 -0.287137,0.34735 -7.49e-4,0.0017 -1.05e-4,0.0025 -0.0021,0.0043 -0.0043,0.0062 -0.0081,0.01288 -0.0124,0.01918 -0.0027,0.0043 -0.0057,0.0085 -0.0082,0.01278 -0.002,0.0033 -0.0045,0.0071 -0.0063,0.0107 -0.0018,0.0036 -0.0027,0.007 -0.0042,0.0107 -0.0032,0.0085 -0.0078,0.01594 -0.0124,0.02344 -0.0059,0.02682 -0.01317,0.05226 -0.02066,0.07885 -0.01895,0.06674 -0.04077,0.133638 -0.0599,0.200312 -0.01462,0.05213 -0.02859,0.104513 -0.03925,0.157692 -0.007,0.03484 -0.0089,0.0504 -0.01446,0.08524 -0.0106,0.065 -0.02022,0.130712 -0.02892,0.196052 l 1.5555,0.899272 c 0.214635,-0.32604 0.378718,-0.717125 0.675496,-0.98025 0.0515,-0.04565 0.113161,-0.0777 0.169391,-0.117205 0.385826,-0.190413 0.827573,-0.210827 1.249771,-0.223752 0.313699,-0.0052 0.626252,0.0013 0.939911,0.0064 0.338539,0.0034 0.677808,0.0017 1.016342,0.0021 0.252061,3.85e-4 0.504009,0.0018 0.756061,0.0021 -0.02784,-0.130634 -0.05686,-0.261611 -0.0847,-0.392102 -0.02443,-0.11607 -0.06126,-0.287202 -0.0847,-0.404885 -0.02562,-0.12867 -0.05021,-0.257419 -0.06611,-0.387839 -0.0011,-0.0092 -0.0016,-0.01845 -0.0021,-0.0277 -0.214846,4.7e-5 -0.429658,6.2e-5 -0.64451,0 -0.241163,1.03e-4 -0.481846,2.54e-4 -0.723008,0 -0.264453,1.58e-4 -0.528791,0.0023 -0.793243,0.0021 -0.338622,-3.54e-4 -0.677757,-4.5e-5 -1.016344,-0.0064 -0.157756,-0.0019 -0.315392,-0.0043 -0.473053,-0.0043 z m -2.474753,1.325471 c -5.04e-4,0.005 -0.0016,0.01 -0.0021,0.01492 10e-4,-0.005 0.003,-0.01 0.0042,-0.01492 z" />
    <path
       style="fill:#000000;fill-opacity:1;stroke-width:1.35174"
       d="m 47.964368,47.252821 c 0.0045,-0.02101 0.01357,-0.06382 0.02121,-0.100686 0.0076,-0.03686 0.0138,-0.06777 0.02034,-0.09539 0.0065,-0.02763 0.01349,-0.05179 0.02045,-0.07794 0.007,-0.02615 0.01391,-0.05438 0.02289,-0.08723 0.009,-0.03285 0.02002,-0.07024 0.03489,-0.122908 0.01487,-0.05267 0.03357,-0.120658 0.05618,-0.186771 0.02261,-0.06611 0.04913,-0.130127 0.08278,-0.186546 0.03365,-0.05642 0.07417,-0.104731 0.118453,-0.151931 0.04429,-0.0472 0.09219,-0.09316 0.146658,-0.142946 0.05447,-0.04979 0.115455,-0.103358 0.200513,-0.128168 0.08506,-0.02481 0.192905,-0.02119 0.205519,0.154233 0.01261,0.175423 -0.0682,0.521942 -0.238932,0.741238 -0.170727,0.219295 -0.432554,0.312475 -0.563988,0.35925 -0.131434,0.04678 -0.131427,0.0468 -0.126959,0.02579 z"
       id="path2370"
       inkscape:path-effect="#path-effect2372"
       inkscape:original-d="m 47.9599,47.27383 c 0.01067,-0.04165 0.0198,-0.08446 0.02731,-0.128427 0.0078,-0.02977 0.01384,-0.0607 0.01849,-0.09279 0.0085,-0.023 0.01544,-0.04716 0.02085,-0.07247 0.0085,-0.02706 0.01544,-0.05529 0.02085,-0.08467 0.01255,-0.03624 0.02364,-0.07361 0.0331,-0.112176 0.02028,-0.06681 0.03898,-0.134798 0.0561,-0.203934 0.02809,-0.06285 0.05463,-0.126856 0.07955,-0.192021 0.0421,-0.04715 0.08261,-0.09547 0.121556,-0.144929 0.04948,-0.04479 0.09737,-0.09076 0.143692,-0.137878 0.06255,-0.05241 0.123532,-0.105982 0.182937,-0.16071 0.109413,0.0048 0.217258,0.0085 0.323523,0.01086 -0.07924,0.34769 -0.160064,0.694208 -0.242462,1.039573 -0.260263,0.09435 -0.522091,0.187524 -0.785503,0.279547 z"
       inkscape:label="arreglar-exterior-manillar" />
    <path
       style="fill:#000000;fill-opacity:1;stroke-width:1.54246"
       d="m 50.019729,47.553205 c 0.0085,-0.02665 0.02562,-0.08062 0.03912,-0.113354 0.0135,-0.03273 0.02284,-0.04323 0.03193,-0.05592 0.0091,-0.01269 0.01808,-0.02778 0.03065,-0.04529 0.01257,-0.01751 0.02855,-0.03717 0.04023,-0.05321 0.01168,-0.01604 0.01926,-0.02873 0.03397,-0.04687 0.01471,-0.01814 0.03628,-0.0414 0.06175,-0.06883 0.02547,-0.02744 0.05483,-0.05905 0.08131,-0.102889 0.02647,-0.04384 0.05043,-0.100562 -0.0318,-0.150644 -0.08224,-0.05008 -0.272873,-0.0935 -0.426593,-0.05907 -0.153721,0.03443 -0.26877,0.147409 -0.239759,0.281795 0.02901,0.134386 0.200698,0.288421 0.285713,0.364695 0.08501,0.07627 0.08503,0.07625 0.0935,0.0496 z"
       id="path2378"
       inkscape:path-effect="#path-effect2380"
       inkscape:original-d="m 50.01126,47.579856 c 0.01896,-0.05266 0.03612,-0.106628 0.05145,-0.161906 0.01124,-0.0094 0.02064,-0.01985 0.02823,-0.03174 0.01088,-0.01381 0.01984,-0.02892 0.02702,-0.04535 0.01777,-0.01833 0.03375,-0.03798 0.04788,-0.05892 0.0094,-0.01142 0.01704,-0.02407 0.02272,-0.03805 0.02339,-0.02196 0.04497,-0.04522 0.06473,-0.06979 0.03119,-0.03029 0.06054,-0.06191 0.08809,-0.09483 0.02578,-0.05543 0.04973,-0.112152 0.07189,-0.170198 -0.188829,-0.04211 -0.379467,-0.08552 -0.571919,-0.13026 -0.113249,0.114304 -0.228296,0.227288 -0.345164,0.338965 0.173499,0.155348 0.345188,0.30938 0.515061,0.462104 z"
       inkscape:label="arreglar-interior-manillar" />
    <path
       style="fill:none;fill-rule:evenodd;stroke:#000000;stroke-width:1.10556px;stroke-linecap:butt;stroke-linejoin:miter;stroke-opacity:1"
       d="m 54.555648,46.815005 0.003,-1.216239"
       id="path2507"
       inkscape:connector-type="polyline"
       inkscape:connector-curvature="0"
       inkscape:label="arreglar-negro-manillar" />
    <rect
       style="fill:#ffffff;fill-opacity:1;stroke-width:1.05486"
       id="rect2785"
       width="1.9726467"
       height="0.63444209"
       x="68.284706"
       y="-15.040841"
       transform="matrix(0.61797912,0.78619451,-0.8158098,0.5783203,0,0)"
       inkscape:label="arreglar-blanco-manillar" />
    <rect
       style="fill:#ffffff;fill-opacity:1"
       id="rect2964"
       width="0.41870284"
       height="0.52147424"
       x="54.855167"
       y="45.339863"
       inkscape:label="arreglar-blanco-manillar-2" />
    <rect
       style="fill:#666666;fill-opacity:1;stroke-width:1.39029"
       id="rect3021"
       width="3.553807"
       height="1.1758838"
       x="50.346237"
       y="63.049992"
       transform="matrix(0.9882582,0.15279306,-0.11787807,0.99302808,0,0)"
       inkscape:label="arreglar-palo-manillar-abajo" />
  </g>
</svg>
